<svg xmlns="http://www.w3.org/2000/svg" viewBox="0 0 64 64">
  <rect width="64" height="64" rx="18" fill="#1c1917" />
  <path
    fill="#f7f4ee"
    d="M32.3 52Q28.3 52 24.7 50.4Q21.1 48.9 18.5 46.1Q15.8 43.4 14.3 39.8Q12.8 36.1 12.8 31.9Q12.8 27.8 14.3 24.2Q15.8 20.6 18.5 17.8Q21.2 15.1 24.8 13.5Q28.5 12 32.7 12Q37.3 12 41.3 13.8Q45.2 15.6 47.9 18.8L43.5 23.2Q41.8 20.7 38.9 19.4Q36 18.1 32.7 18.1Q28.7 18.1 25.7 19.9Q22.6 21.6 21 24.7Q19.3 27.8 19.3 31.9Q19.3 36.1 21 39.2Q22.7 42.3 25.6 44.1Q28.5 45.9 32.1 45.9Q36 45.9 38.8 44.5Q41.6 43.1 43.1 40.3Q44.6 37.4 44.6 33.3L48.6 36.2L32 36.2L32 30.4L51.3 30.4L51.3 31.3Q51.3 38.2 48.8 42.8Q46.3 47.4 42 49.7Q37.8 52 32.3 52z"
  />
</svg>
